# xmcd CD database file
#
# Track frame offsets:
#	150
#	18118
#	35366
#	52373
#	67455
#	83270
#	102126
#	119037
#	136317
#	157786
#	177172
#	197536
#	214770
#	231883
#	250624
#	272496
#	294442
#
# Disc length: 4244 seconds
#
# Revision: 0
# Processed by: cddbd v1.5.1PL2 Copyright (c) Steve Scherf et al.
# Submitted via: CDex 1.51
#
DISCID=e8109211
DTITLE=シブがき隊 - シブがき隊 ゴールデンベスト CD2
DYEAR=2002
DGENRE=Vocal
TTITLE0=月光淑女!
TTITLE1=KILL
TTITLE2=トラ!トラ!トラ!
TTITLE3=スシ食いねェ!
TTITLE4=Oh! SUSHI （スシ食いねェ! 英語ヴァージョン）
TTITLE5=飛んで火に入る夏の令嬢
TTITLE6=千夜一夜キッス倶楽部
TTITLE7=恋人達のBlvd.
TTITLE8=あの頃の俺達
TTITLE9=ドリーム・ラッシュ
TTITLE10=雨の日の君が好き
TTITLE11=反逆のアジテイション
TTITLE12=演歌なんて歌えない
TTITLE13=PSST PSST
TTITLE14=恋するような友情を
TTITLE15=君を忘れない
TTITLE16=Together! SHIBUGAKI
EXTD=YEAR: 2002
EXTT0=
EXTT1=
EXTT2=
EXTT3=
EXTT4=
EXTT5=
EXTT6=
EXTT7=
EXTT8=
EXTT9=
EXTT10=
EXTT11=
EXTT12=
EXTT13=
EXTT14=
EXTT15=
EXTT16=
PLAYORDER=
